<?xml version="1.0" encoding="UTF-8" standalone="no"?>
<!-- Created with Inkscape (http://www.inkscape.org/) -->

<svg
   xmlns:dc="http://purl.org/dc/elements/1.1/"
   xmlns:cc="http://creativecommons.org/ns#"
   xmlns:rdf="http://www.w3.org/1999/02/22-rdf-syntax-ns#"
   xmlns:svg="http://www.w3.org/2000/svg"
   xmlns="http://www.w3.org/2000/svg"
   xmlns:sodipodi="http://sodipodi.sourceforge.net/DTD/sodipodi-0.dtd"
   xmlns:inkscape="http://www.inkscape.org/namespaces/inkscape"
   width="210mm"
   height="180mm"
   viewBox="0 0 744.09449 637.79507"
   id="svg2"
   version="1.1"
   inkscape:version="0.91 r13725"
   sodipodi:docname="jiji.svg">
  <defs
     id="defs4" />
  <sodipodi:namedview
     id="base"
     pagecolor="#ffffff"
     bordercolor="#666666"
     borderopacity="1.0"
     inkscape:pageopacity="0.0"
     inkscape:pageshadow="2"
     inkscape:zoom="0.35"
     inkscape:cx="647.89386"
     inkscape:cy="625.76962"
     inkscape:document-units="px"
     inkscape:current-layer="layer1"
     showgrid="false"
     inkscape:window-width="1600"
     inkscape:window-height="837"
     inkscape:window-x="-8"
     inkscape:window-y="-8"
     inkscape:window-maximized="1" />
  <metadata
     id="metadata7">
    <rdf:RDF>
      <cc:Work
         rdf:about="">
        <dc:format>image/svg+xml</dc:format>
        <dc:type
           rdf:resource="http://purl.org/dc/dcmitype/StillImage" />
        <dc:title></dc:title>
      </cc:Work>
    </rdf:RDF>
  </metadata>
  <g
     inkscape:label="Layer 1"
     inkscape:groupmode="layer"
     id="layer1"
     transform="translate(0,-414.56719)">
    <path
       style="fill:#40404d;fill-opacity:1;fill-rule:evenodd;stroke:#000000;stroke-width:0.6303373px;stroke-linecap:butt;stroke-linejoin:miter;stroke-opacity:1"
       d="m 262.04465,507.70046 c 177.8772,-49.23266 183.21352,-51.0561 183.21352,-51.0561 l 144.08052,32.82179 c 0,0 8.89386,0 37.35419,25.52805 28.46036,25.52805 37.35422,69.29043 37.35422,69.29043 0,0 8.89391,0 16.00895,20.05776 7.11511,20.05775 5.33636,78.40758 5.33636,78.40758 l -5.33636,45.5858 L 242.4782,985.43975 222.91169,969.02885 190.89378,981.79288 153.53957,939.85394 39.698192,883.32753 11.237834,850.50576 c 0,0 17.787701,-224.28218 62.257012,-251.63367 C 117.96416,571.52061 201.56644,520.4645 201.56644,520.4645 l 35.57539,-9.11716 z"
       id="path4146"
       inkscape:connector-curvature="0" />
    <path
       style="fill:#ecd7d8;fill-opacity:1;fill-rule:evenodd;stroke:#000000;stroke-width:0.6303373px;stroke-linecap:butt;stroke-linejoin:miter;stroke-opacity:1"
       d="m 262.04465,941.67737 -3.55755,43.76238 78.26599,23.70465 119.17771,9.1171 56.9207,-1.8234 8.89386,-18.23429 1.77878,-41.93898 51.58437,32.82178 39.13299,1.82344 12.45138,-23.70462 48.02687,-89.34819 -23.12406,-43.76238 -76.48718,-60.17327 -149.41683,38.29209 -46.24806,21.88118 -48.02685,80.23102 z"
       id="path4144"
       inkscape:connector-curvature="0" />
    <path
       style="fill:#f2abab;fill-opacity:1;fill-rule:evenodd;stroke:#000000;stroke-width:0.6303373px;stroke-linecap:butt;stroke-linejoin:miter;stroke-opacity:1"
       d="m 420.35536,832.27143 c -12.4514,87.52475 1.77878,91.17161 1.77878,91.17161 0,0 58.69947,36.46865 99.61122,23.70463 40.91176,-12.76403 60.47825,-87.52475 60.47825,-87.52475 0,0 -32.01789,-60.17328 -51.58439,-52.87954 -19.56649,7.29372 -67.59333,-10.9406 -67.59333,-10.9406 z"
       id="path4140"
       inkscape:connector-curvature="0" />
    <path
       style="fill:none;fill-rule:evenodd;stroke:#000000;stroke-width:0.6303373px;stroke-linecap:butt;stroke-linejoin:miter;stroke-opacity:1"
       d="m 468.38221,814.0371 c 14.23017,60.17328 40.91175,92.99505 40.91175,92.99505"
       id="path4142"
       inkscape:connector-curvature="0" />
    <path
       style="fill:#f1e0e0;fill-opacity:1;fill-rule:evenodd;stroke:#000000;stroke-width:0.6303373px;stroke-linecap:butt;stroke-linejoin:miter;stroke-opacity:1"
       d="m 395.45255,591.57836 -19.56648,-45.58581 7.11509,32.82178 -28.46035,-63.82013 12.4514,38.29208 c 0,0 -28.46036,-67.467 -40.91175,-67.467 -12.45141,0 28.46035,-5.47029 28.46035,-5.47029 l -42.69053,-12.76404 56.9207,7.29374 -5.33632,-5.4703 49.80562,7.29372 -14.23018,-14.58745 37.35422,23.70462 -39.13299,-32.82178 46.24807,30.99835 -30.23912,-34.64521 26.68157,18.23431 -1.77876,-16.41089 19.56648,18.23433 0,-16.41089 16.00895,27.35149 1.77877,-21.88119 c 0,0 55.14193,7.29373 65.81456,12.76402 10.67264,5.47029 -40.91175,40.11552 -40.91175,40.11552 l 39.13298,-25.52806 -46.24806,40.11551 39.13297,-25.52805 -37.3542,32.82178 26.68157,-10.9406 c 0,0 -10.67263,-14.58746 -46.24807,25.52805 -35.57544,40.11552 -40.91175,58.34985 -40.91175,58.34985 l -32.01789,0 z"
       id="path4148"
       inkscape:connector-curvature="0" />
    <path
       style="fill:#7a5e5f;fill-opacity:1;fill-rule:evenodd;stroke:#000000;stroke-width:0.6303373px;stroke-linecap:butt;stroke-linejoin:miter;stroke-opacity:1"
       d="m 482.61238,615.28298 c 0,0 8.89386,-36.46865 33.79667,-38.29207 24.9028,-1.82344 80.04474,-14.58747 101.39,3.64686 21.34524,18.23432 30.23915,38.29207 30.23915,38.29207 0,0 3.55749,-89.34819 -26.68161,-89.34819 -30.23912,0 -40.91175,-7.29373 -40.91175,-7.29373 0,0 -51.58438,12.76403 -60.47825,16.41089 -8.89386,3.64687 -39.13298,9.11716 -39.13298,9.11716 l -14.23017,20.05777 c 0,0 -1.77878,7.29373 1.77877,21.88119 3.55755,14.58746 14.23017,25.52805 14.23017,25.52805 z"
       id="path4150"
       inkscape:connector-curvature="0" />
    <path
       style="fill:#7a5e5f;fill-opacity:1;fill-rule:evenodd;stroke:#000000;stroke-width:0.6303373px;stroke-linecap:butt;stroke-linejoin:miter;stroke-opacity:1"
       d="m 231.80554,863.26978 -90.71738,38.29208 60.47828,-69.29043 -46.24806,32.82179 32.01785,-29.17493 -69.37207,21.88119 28.4603,-45.5858 131.62915,-71.11387 39.13298,-23.70462 69.37211,34.64521 z"
       id="path4154"
       inkscape:connector-curvature="0" />
    <path
       style="fill:#dec5c6;fill-opacity:1;fill-rule:evenodd;stroke:#000000;stroke-width:0.6303373px;stroke-linecap:butt;stroke-linejoin:miter;stroke-opacity:1"
       d="m 457.70957,770.27473 7.11509,36.46865 c 0,0 -12.45141,16.41088 -23.12403,21.88118 -10.67264,5.4703 -44.4693,7.29373 -44.4693,7.29373 l -51.58438,96.64191 -80.04475,12.76403 -44.46932,-29.17491 -5.3363,-23.70463 c 0,0 67.59332,-94.81848 76.48724,-94.81848 8.89383,0 -24.90281,-14.58746 -24.90281,-14.58746 l 64.03576,-40.11551 24.90281,7.29374 c 0,0 -55.14193,-30.99835 -65.81457,-12.76404 -10.67259,18.23433 -19.56651,12.76404 -19.56651,12.76404 0,0 21.34532,-41.93896 35.57546,-43.76239 14.23018,-1.82343 80.04474,-9.11715 80.04474,-9.11715 l 10.67263,-12.76404 -51.58438,7.29374 c 0,0 -23.12403,-18.23432 -3.55755,-20.05776 19.56649,-1.82343 81.82351,3.64686 81.82351,3.64686 L 386.5587,595.22523 c 0,0 39.13298,-20.05776 44.46929,-7.29374 5.33633,12.76403 12.45141,-3.64686 12.45141,-3.64686 l 16.00895,9.11716 -12.4514,74.76073 23.12403,-45.58581 24.90281,14.58746 -19.5665,25.52805 32.01789,-3.64686 8.89387,16.41088 113.84139,20.05776 53.36316,40.11552 30.2391,16.41088 17.78777,38.29209 -42.69057,67.46699 c 0,0 -32.01785,-7.29372 -35.5754,-21.88119 -3.55755,-14.58746 -90.71738,-56.5264 -90.71738,-56.5264 0,0 -21.34527,30.99835 -55.14194,34.64521 -33.79666,3.64686 -39.13297,-5.4703 -39.13297,-5.4703 z"
       id="path4138"
       inkscape:connector-curvature="0"
       sodipodi:nodetypes="ccscccccscccscscccsccscccccccccc" />
    <path
       style="fill:#000000;fill-opacity:1;fill-rule:evenodd;stroke:#000000;stroke-width:0.6303373px;stroke-linecap:butt;stroke-linejoin:miter;stroke-opacity:1"
       d="m 399.0101,757.5107 60.47825,9.11717 40.91175,-27.35149 -12.45141,-47.40924 -69.3721,10.94058 -26.68157,32.8218 z"
       id="path4158"
       inkscape:connector-curvature="0"
       sodipodi:nodetypes="ccccccc" />
    <path
       style="fill:#7a5e5f;fill-opacity:1;fill-rule:evenodd;stroke:#000000;stroke-width:0.6303373px;stroke-linecap:butt;stroke-linejoin:miter;stroke-opacity:1"
       d="m 550.20572,682.74997 c 0,0 56.9207,-27.35148 72.92964,-29.17491 16.00893,-1.82343 32.01788,1.82343 32.01788,1.82343 0,0 8.89386,52.87953 0,63.82014 -8.89385,10.94059 -104.94752,-36.46866 -104.94752,-36.46866 z"
       id="path4156"
       inkscape:connector-curvature="0" />
    <path
       style="fill:#2d2d2d;fill-opacity:1;fill-rule:evenodd;stroke:#000000;stroke-width:0.6303373px;stroke-linecap:butt;stroke-linejoin:miter;stroke-opacity:1"
       d="m 438.14309,684.5734 c 0,0 -51.58439,38.29209 -53.36316,51.05612 -1.77877,12.76402 3.55754,25.52805 19.56649,27.35148 16.00894,1.82343 23.12403,-29.17492 10.67263,-25.52806 -12.4514,3.64687 -14.23018,10.9406 -14.23018,0 0,-10.94059 30.23912,-20.05775 30.23912,-7.29372 0,12.76402 -14.23016,34.64521 3.55755,38.29207 17.78771,3.64687 26.68158,1.82344 26.68158,1.82344 l 30.23912,-21.88119 c 0,0 -3.55755,-16.41089 -7.11508,-18.23432 -3.55755,-1.82345 -21.34527,-9.11717 -14.23018,-20.05775 7.11508,-10.94061 19.56649,-5.47031 19.56649,-5.47031 l 1.77877,25.52806 c 0,0 0,-1.82345 10.67263,-1.82345 10.67263,0 1.77878,-30.99833 -8.89385,-40.1155 -10.67264,-9.11715 -55.14193,-3.64687 -55.14193,-3.64687 z"
       id="path4136"
       inkscape:connector-curvature="0" />
    <path
       style="fill:#7a5e5f;fill-opacity:1;fill-rule:evenodd;stroke:#000000;stroke-width:0.6303373px;stroke-linecap:butt;stroke-linejoin:miter;stroke-opacity:1"
       d="m 391.89502,620.75328 c 0,0 -32.01789,-80.23103 -62.25702,-74.76073 -30.23912,5.4703 -113.84142,29.17492 -113.84142,29.17492 l -42.69051,43.76237 49.80562,-23.70461 -60.47827,63.82013 48.02687,-38.29208 -72.92968,65.64356 14.23015,9.11716 21.34531,-20.05776 -26.68161,49.23268 12.4514,20.05776 -10.67259,23.70461 17.7877,1.82344 26.68155,-23.70463 c 0,0 24.90281,-36.46863 35.57546,-76.58415 10.6726,-40.11551 35.57541,-85.70132 74.70845,-85.70132 39.13297,0 69.37209,34.64521 69.37209,34.64521 l 12.45141,16.4109 8.89386,-3.64687 z"
       id="path4152"
       inkscape:connector-curvature="0" />
    <path
       style="color:#000000;font-style:normal;font-variant:normal;font-weight:normal;font-stretch:normal;font-size:medium;line-height:normal;font-family:sans-serif;text-indent:0;text-align:start;text-decoration:none;text-decoration-line:none;text-decoration-style:solid;text-decoration-color:#000000;letter-spacing:normal;word-spacing:normal;text-transform:none;direction:ltr;block-progression:tb;writing-mode:lr-tb;baseline-shift:baseline;text-anchor:start;white-space:normal;clip-rule:nonzero;display:inline;overflow:visible;visibility:visible;opacity:1;isolation:auto;mix-blend-mode:normal;color-interpolation:sRGB;color-interpolation-filters:linearRGB;solid-color:#000000;solid-opacity:1;fill:#000000;fill-opacity:1;fill-rule:evenodd;stroke:none;stroke-width:1px;stroke-linecap:butt;stroke-linejoin:miter;stroke-miterlimit:4;stroke-dasharray:none;stroke-dashoffset:0;stroke-opacity:1;color-rendering:auto;image-rendering:auto;shape-rendering:auto;text-rendering:auto;enable-background:accumulate"
       d="m 337.86257,631.57668 c -20.58614,1.04058 -37.80958,14.33279 -54.0043,26.03786 -11.75488,8.99204 -22.83644,18.8779 -33.44734,29.24881 -0.0374,5.30497 7.38567,9.05694 10.81591,4.50481 20.49059,-18.90683 41.84405,-38.36643 68.26628,-47.67189 3.98437,-1.10409 8.18702,-1.49803 12.27632,-0.8152 3.63882,-3.71416 2.0181,-11.68114 -3.90687,-11.30439 z"
       id="path4234"
       inkscape:connector-curvature="0" />
    <path
       style="color:#000000;font-style:normal;font-variant:normal;font-weight:normal;font-stretch:normal;font-size:medium;line-height:normal;font-family:sans-serif;text-indent:0;text-align:start;text-decoration:none;text-decoration-line:none;text-decoration-style:solid;text-decoration-color:#000000;letter-spacing:normal;word-spacing:normal;text-transform:none;direction:ltr;block-progression:tb;writing-mode:lr-tb;baseline-shift:baseline;text-anchor:start;white-space:normal;clip-rule:nonzero;display:inline;overflow:visible;visibility:visible;opacity:1;isolation:auto;mix-blend-mode:normal;color-interpolation:sRGB;color-interpolation-filters:linearRGB;solid-color:#000000;solid-opacity:1;fill:#000000;fill-opacity:1;fill-rule:evenodd;stroke:none;stroke-width:1px;stroke-linecap:butt;stroke-linejoin:miter;stroke-miterlimit:4;stroke-dasharray:none;stroke-dashoffset:0;stroke-opacity:1;color-rendering:auto;image-rendering:auto;shape-rendering:auto;text-rendering:auto;enable-background:accumulate"
       d="m 540.21975,609.18978 c -8.96213,0.33843 -18.36932,1.08297 -26.914,3.67589 -2.61002,4.83157 2.75409,11.8412 7.96827,9.22666 20.48212,-3.61288 43.11424,-3.5923 61.36562,7.92624 4.97297,1.50065 9.34754,-6.49297 4.65468,-9.62786 -5.58956,-4.72887 -13.0755,-6.26756 -19.77196,-8.48778 -8.89247,-2.2201 -18.14366,-2.89993 -27.30261,-2.71315 z"
       id="path4246"
       inkscape:connector-curvature="0" />
  </g>
</svg>
